<svg xmlns="http://www.w3.org/2000/svg" version="1.1" xmlns:xlink="http://www.w3.org/1999/xlink" xmlns:svgjs="http://svgjs.dev/svgjs" width="2000" height="2000" viewBox="0 0 2000 2000"><g transform="matrix(1,0,0,1,-0.28443113772425477,-0.28443113772459583)"><svg viewBox="0 0 334 334" data-background-color="#ffffff" preserveAspectRatio="xMidYMid meet" height="2000" width="2000" xmlns="http://www.w3.org/2000/svg" xmlns:xlink="http://www.w3.org/1999/xlink"><g id="tight-bounds" transform="matrix(1,0,0,1,0.04749999999998522,0.04750000000001364)"><svg viewBox="0 0 333.90454557049503 333.90454557049503" height="333.90454557049503" width="333.90454557049503"><g><svg></svg></g><g><svg viewBox="0 0 333.90454557049503 333.90454557049503" height="333.90454557049503" width="333.90454557049503"><g><path d="M0 166.952c0-92.205 74.747-166.952 166.952-166.952 92.205 0 166.952 74.747 166.953 166.952 0 92.205-74.747 166.952-166.953 166.953-92.205 0-166.952-74.747-166.952-166.953zM166.952 317.976c83.408 0 151.023-67.615 151.024-151.024 0-83.408-67.615-151.023-151.024-151.023-83.408 0-151.023 67.615-151.023 151.023 0 83.408 67.615 151.023 151.023 151.024z" data-fill-palette-color="tertiary" fill="#ff0000" stroke="transparent"></path><ellipse rx="160.27418187383762" ry="160.27418187383762" cx="166.95227278524752" cy="166.95227278524752" fill="#ff0000" stroke="transparent" stroke-width="0" fill-opacity="1" data-fill-palette-color="tertiary"></ellipse></g><g transform="matrix(1,0,0,1,114.7090615414774,71.17305217166896)"><svg viewBox="0 0 104.48642248754024 191.55844122715712" height="191.55844122715712" width="104.48642248754024"><g><svg viewBox="0 0 104.48642248754024 191.55844122715712" height="191.55844122715712" width="104.48642248754024"><g><svg viewBox="0 0 104.48642248754024 191.55844122715712" height="191.55844122715712" width="104.48642248754024"><g><svg viewBox="0 0 104.48642248754024 191.55844122715712" height="191.55844122715712" width="104.48642248754024"><g><svg viewBox="0 0 104.48642248754024 191.55844122715712" height="191.55844122715712" width="104.48642248754024"><g transform="matrix(1,0,0,1,0,0)"><svg width="104.48642248754024" viewBox="1.1000001430511475 -34.900001525878906 21 35.5" height="191.55844122715712" data-palette-color="#ffffff"><svg></svg><g class="undefined-text-0" data-fill-palette-color="quaternary" id="text-0"><path xmlns="http://www.w3.org/2000/svg" d="M5.6-34.9h16.5v25.45c0 3.2-0.89 5.677-2.67 7.43-1.787 1.747-4.397 2.62-7.83 2.62v0c-3.267 0-5.707-0.833-7.32-2.5-1.62-1.667-2.68-4.033-3.18-7.1v0l6.5-1.35c0.233 1.767 0.65 2.983 1.25 3.65 0.6 0.667 1.483 1 2.65 1v0c1.067 0 1.91-0.3 2.53-0.9 0.613-0.6 0.92-1.683 0.92-3.25v0-19.3h-9.35z" fill="#ffffff" fill-rule="nonzero" stroke="none" stroke-width="1" stroke-linecap="butt" stroke-linejoin="miter" stroke-miterlimit="10" stroke-dasharray="" stroke-dashoffset="0" font-family="none" font-weight="none" font-size="none" text-anchor="none" style="mix-blend-mode: normal" data-fill-palette-color="quaternary" opacity="1"></path></g></svg></g></svg></g></svg></g></svg></g></svg></g></svg></g></svg></g><defs></defs></svg><rect width="333.90454557049503" height="333.90454557049503" fill="none" stroke="none" visibility="hidden"></rect></g></svg></g></svg>